Coordinates
version=1
nRows=23
nColumns=30
inDegrees=yes

Units are S.I. units (second, meters, Newtons, ...)
Angles are in degrees.

endheader
time	floatyaw	floatroll	floatpitch	floatx	floaty	floatz	pro_sup_l	deviation_l	flexion_l	cmc_flexion_l	cmc_abduction_l	mp_flexion_l	ip_flexion_l	2mcp_flexion_l	2mcp_abduction_l	2pm_flexion_l	2md_flexion_l	3mcp_flexion_l	3mcp_abduction_l	3pm_flexion_l	3md_flexion_l	4mcp_flexion_l	4mcp_abduction_l	4pm_flexion_l	4md_flexion_l	5mcp_flexion_l	5mcp_abduction_l	5pm_flexion_l	5md_flexion_l
0.005000	-160.147433	-5.066637	-73.570646	-0.070379	-0.138243	-0.122065	51.185998	-7.205377	-8.728300	9.769697	6.198216	-34.706053	-53.881152	45.926691	15.473350	54.184428	49.836793	55.953449	6.433595	55.586586	39.047783	52.185969	-6.446192	55.086229	47.875349	24.769209	-14.276587	75.326327	61.591032
0.015000	-160.147433	-5.066637	-73.570646	-0.070309	-0.135429	-0.122317	49.966601	-7.129326	-9.593244	9.366163	6.749795	-34.687381	-53.913068	47.155354	15.655175	53.829979	50.144569	56.831869	6.488755	55.447527	39.184929	53.097764	-6.498032	54.634976	48.301078	25.675169	-14.359338	75.666562	61.729795
0.025000	-160.147433	-5.066637	-73.570646	-0.070250	-0.132133	-0.122530	48.789889	-7.082648	-10.578808	8.858913	7.126572	-34.699537	-53.933827	48.511527	15.820561	53.456052	50.457315	57.823202	6.556782	55.225762	39.299191	54.105698	-6.554226	54.115679	48.717591	26.869960	-14.418043	75.816811	61.918324
0.035000	-160.147433	-5.066637	-73.570646	-0.070274	-0.128840	-0.122679	47.693293	-7.170110	-11.540490	8.251906	7.391127	-34.800536	-53.986394	49.960923	15.969994	53.040724	50.779755	58.912022	6.618679	54.862702	39.349548	55.176031	-6.618116	53.493461	49.099798	28.184117	-14.422851	75.899863	62.187141
0.045000	-160.147433	-5.066637	-73.570646	-0.070403	-0.126064	-0.122743	46.706778	-7.422816	-12.320817	7.610001	7.630710	-35.006149	-54.087711	51.393594	16.108384	52.612543	51.092567	60.019238	6.659208	54.369874	39.308781	56.219678	-6.689369	52.789998	49.431447	29.382629	-14.364286	76.042703	62.521021
0.055000	-160.147433	-5.066637	-73.570646	-0.070596	-0.124170	-0.122722	45.846876	-7.785240	-12.816521	7.024837	7.921017	-35.278579	-54.216034	52.661147	16.238037	52.225207	51.370829	61.024959	6.672354	53.824936	39.180612	57.122759	-6.763519	52.074598	49.713186	30.257594	-14.256047	76.316042	62.870495
0.065000	-160.147433	-5.066637	-73.570646	-0.070766	-0.123260	-0.122636	45.116799	-8.144161	-13.016880	6.572422	8.279588	-35.545126	-54.323047	53.630783	16.354741	51.928957	51.600783	61.812346	6.661890	53.337234	39.000157	57.787258	-6.833205	51.439200	49.958754	30.703759	-14.127785	76.710042	63.172031
0.075000	-160.147433	-5.066637	-73.570646	-0.070822	-0.123181	-0.122512	44.507925	-8.384568	-12.993927	6.284228	8.651502	-35.735857	-54.363494	54.232174	16.449719	51.751626	51.784808	62.310085	6.637578	53.001490	38.817760	58.161898	-6.890543	50.968089	50.183699	30.742118	-14.011848	77.154663	63.371913
0.085000	-160.147433	-5.066637	-73.570646	-0.070711	-0.123628	-0.122372	44.001251	-8.441473	-12.856839	6.143488	8.942582	-35.815393	-54.321049	54.476807	16.515600	51.692259	51.935498	62.512939	6.609707	52.861855	38.676143	58.251488	-6.929680	50.711825	50.395192	30.488850	-13.931275	77.566906	63.447450
0.095000	-160.147433	-5.066637	-73.570646	-0.070429	-0.124279	-0.122225	43.571611	-8.321799	-12.701895	6.102776	9.073241	-35.790893	-54.213204	54.443216	16.551649	51.724682	52.066355	62.473224	6.585063	52.901396	38.593945	58.104779	-6.948513	50.674235	50.588945	30.093861	-13.894585	77.896825	63.418588
0.105000	-160.147433	-5.066637	-73.570646	-0.070023	-0.124896	-0.122073	43.195281	-8.090809	-12.583341	6.109712	9.013348	-35.696638	-54.074354	54.238587	16.564775	51.807998	52.185058	62.271364	6.565921	53.058752	38.563226	57.789859	-6.948887	50.817505	50.753008	29.680551	-13.898100	78.150963	63.344267
0.115000	-160.147433	-5.066637	-73.570646	-0.069557	-0.125357	-0.121917	42.856864	-7.836529	-12.510911	6.128083	8.780743	-35.569413	-53.930831	53.957513	16.566358	51.901255	52.291132	61.982592	6.551577	53.260509	38.559282	57.369813	-6.935422	51.081908	50.873912	29.310074	-13.932299	78.385817	63.301827
0.125000	-160.147433	-5.066637	-73.570646	-0.069095	-0.125642	-0.121765	42.551554	-7.632285	-12.464769	6.147119	8.415265	-35.430602	-53.785308	53.656371	16.567371	51.977652	52.377788	61.655494	6.540583	53.451601	38.555201	56.888943	-6.913845	51.408931	50.941269	28.978837	-13.987351	78.676646	63.355423
0.135000	-160.147433	-5.066637	-73.570646	-0.068679	-0.125791	-0.121624	42.283029	-7.512897	-12.415261	6.177662	7.952440	-35.282987	-53.619759	53.350623	16.574261	52.031770	52.436911	61.308953	6.532082	53.610064	38.533458	56.372665	-6.889675	51.756457	50.949894	28.643571	-14.054840	79.076714	63.527882
0.145000	-160.147433	-5.066637	-73.570646	-0.068327	-0.125864	-0.121497	42.059466	-7.470599	-12.338652	6.239265	7.413499	-35.119535	-53.412755	53.030195	16.586951	52.075554	52.464563	60.943269	6.525807	53.743118	38.490451	55.836224	-6.867551	52.101820	50.900249	28.257690	-14.126120	79.587726	63.792346
0.155000	-160.147433	-5.066637	-73.570646	-0.068036	-0.125912	-0.121381	41.889134	-7.467761	-12.225079	6.346095	6.811747	-34.935076	-53.157740	52.680745	16.599422	52.125537	52.463620	60.555310	6.521362	53.871289	38.433772	55.293525	-6.850989	52.436346	50.797875	27.799851	-14.190244	80.157668	64.089392
0.165000	-160.147433	-5.066637	-73.570646	-0.067789	-0.125972	-0.121270	41.776089	-7.457586	-12.078681	6.499240	6.163030	-34.732825	-52.870081	52.298183	16.602729	52.190219	52.442139	60.148338	6.517612	54.011385	38.374989	54.759706	-6.842157	52.758029	50.652078	27.282458	-14.234320	80.706094	64.357805
0.175000	-160.147433	-5.066637	-73.570646	-0.067563	-0.126060	-0.121154	41.717256	-7.402854	-11.912188	6.687913	5.488907	-34.523409	-52.579438	51.889880	16.589360	52.266581	52.409518	59.732668	6.512697	54.167249	38.322247	54.247054	-6.841537	53.067082	50.474288	26.740230	-14.246823	81.160648	64.558918
0.185000	-160.147433	-5.066637	-73.570646	-0.067338	-0.126183	-0.121026	41.702336	-7.286111	-11.739326	6.896094	4.811751	-34.319014	-52.313327	51.465429	16.556935	52.346991	52.373780	59.319434	6.504683	54.331211	38.276565	53.758943	-6.847672	53.365130	50.276749	26.209336	-14.221992	81.485451	64.683418
0.195000	-160.147433	-5.066637	-73.570646	-0.067097	-0.126340	-0.120884	41.716613	-7.110132	-11.568520	7.109176	4.148830	-34.126948	-52.082340	51.026781	16.509304	52.428800	52.341306	58.913475	6.492492	54.492335	38.233188	53.287613	-6.857460	53.655574	50.071770	25.710522	-14.162607	81.690306	64.744426
0.205000	-160.147433	-5.066637	-73.570646	-0.066833	-0.126524	-0.120727	41.745141	-6.891697	-11.400345	7.317594	3.510736	-33.946398	-51.876228	50.566796	16.454461	52.517113	52.317555	58.510754	6.476539	54.644097	38.186389	52.818486	-6.867126	53.942365	49.871117	25.244501	-14.079412	81.819851	64.766118
0.215000	-160.147433	-5.066637	-73.570646	-0.066549	-0.126724	-0.120557	41.776441	-6.653196	-11.229120	7.517407	2.903371	-33.770181	-51.673032	50.077243	16.400548	52.618446	52.306703	58.101736	6.458646	54.786413	38.134469	52.338585	-6.873498	54.226878	49.685151	24.798585	-13.987247	81.929649	64.772851
0.225000	-160.147433	-5.066637	-73.570646	-0.066252	-0.126927	-0.120375	41.804320	-6.415664	-11.047016	7.708853	2.330200	-33.590220	-51.454529	49.558955	16.352320	52.731846	52.309867	57.677787	6.441265	54.922400	38.082195	51.843395	-6.874927	54.505343	49.521755	24.356657	-13.899749	82.061500	64.779929
